<svg height="512pt" viewBox="0 0 512 512.00006" width="512pt" xmlns="http://www.w3.org/2000/svg"><g fill-rule="evenodd"><path d="m86.585938 299.511719h79.390624v174.019531h-79.390624zm0 0" fill="#ff6b6b"/><path d="m210.890625 200.871094h79.390625v272.660156h-79.390625zm0 0" fill="#54a0ff"/><path d="m335.191406 361.257812h79.390625v112.273438h-79.390625zm0 0" fill="#feca57"/><path d="m512 473.179688c.003906-2.453126-1.203125-4.984376-2.9375-6.71875l-28.472656-28.46875c-3.902344-3.90625-10.234375-3.90625-14.140625 0s-3.90625 10.238281 0 14.140624l11.398437 11.398438h-53.265625v-102.273438c0-5.519531-4.476562-9.996093-10-9.996093h-79.390625c-5.523437 0-10 4.476562-10 9.996093v102.273438h-24.914062v-262.660156c0-5.523438-4.476563-10-10-10h-79.390625c-5.523438 0-10 4.476562-10 10v96.332031c0 5.523437 4.476562 10 10 10 5.523437 0 10-4.476563 10-10v-86.332031h59.390625v252.660156h-59.390625v-86.332031c0-5.523438-4.476563-10-10-10-5.523438 0-10 4.476562-10 10v86.332031h-24.910157v-164.019531c0-5.523438-4.476562-10-10-10h-79.390624c-5.523438 0-10 4.476562-10 10v164.019531h-28.117188v-429.378906l11.398438 11.398437c1.953124 1.953125 4.511718 2.929688 7.070312 2.929688s5.121094-.976563 7.070312-2.929688c3.90625-3.90625 3.90625-10.238281 0-14.140625 0 0-28.46875-28.46875-28.46875-28.46875-3.246093-2.9296872-8.582031-4.804687-14.140624 0l-28.46875 28.46875c-3.90625 3.902344-3.90625 10.234375 0 14.140625s10.238281 3.90625 14.140624 0l11.398438-11.398437v439.378906c0 5.523438 4.476562 10 10 10h296.722656 79.410156 63.246094l-11.398437 11.398438c-3.90625 3.90625-3.90625 10.238281 0 14.140624 1.953125 1.953126 4.511719 2.929688 7.070312 2.929688 2.558594 0 5.117188-.976562 7.070313-2.929688l28.46875-28.46875c.011718-.007812.019531-.019531.027344-.027343.222656-.222657 2.902343-2.667969 2.914062-7.394531zm-415.414062-9.648438v-154.019531h59.390624v154.019531zm248.605468-92.273438h59.390625v92.273438h-59.390625zm0 0"/><path d="m210.890625 347.199219c5.507813 0 9.996094-4.488281 9.996094-10 0-5.507813-4.488281-9.996094-9.996094-9.996094s-10 4.488281-10 9.996094c0 5.511719 4.492187 10 10 10zm0 0"/></g></svg>