<svg id="Capa_1" enable-background="new 0 0 511.851 511.851" height="512" viewBox="0 0 511.851 511.851" width="512" xmlns="http://www.w3.org/2000/svg"><g><g><path d="m199.17 381.556h-145.946v107.773c0 1.921 2.001 3.188 3.737 2.366l18.426-8.723c.681-.323 1.469-.336 2.161-.036l23.232 10.068c.677.293 1.446.287 2.118-.016l22.241-10.045c.674-.304 1.445-.309 2.123-.014l23.086 10.061c.693.302 1.483.29 2.166-.034l21.054-9.974c.692-.328 1.493-.336 2.192-.023l19.722 8.85c1.732.777 3.689-.49 3.689-2.388v-107.865z" fill="#f8f7f8"/><path d="m84.406 415.556h114.764v-34h-145.946v107.773c0 1.921 2.001 3.188 3.737 2.366l18.426-8.723c.259-.123.535-.188.814-.219.487-.056.98.025 1.43.22l23.148 10.032c.677.293 1.446.287 2.118-.016l22.241-10.045c.674-.304 1.445-.31 2.123-.014l23.086 10.061c.693.302 1.483.29 2.166-.034l21.054-9.974c.692-.328 1.493-.336 2.192-.023l19.722 8.85c1.732.777 3.689-.49 3.689-2.388v-10.908c0 1.898-1.957 3.165-3.689 2.388l-17.327-7.776c-2.219-.996-4.762-.969-6.96.072l-13.279 6.291c-4.116 1.95-8.873 2.024-13.048.205l-15.01-6.541c-2.331-1.016-4.984-.998-7.302.048l-12.357 5.581c-5.322 2.404-11.412 2.451-16.771.128l-15.881-6.882c-.8-.344-1.318-1.13-1.318-2.001v-46.295c.002-4.516 3.662-8.176 8.178-8.176z" fill="#efedee"/><path d="m304.187 351.014-6.203 31.037c-2.026 10.138-11.887 16.713-22.025 14.687s-16.713-11.887-14.687-22.025l3.993-19.978 12.125-66.491 38.642 8.169z" fill="#ffe6c6"/><path d="m273.406 378.382 3.993-19.978 12.125-66.491 26.279 5.556.229-1.055-38.642-8.169-12.125 66.491-3.993 19.978c-2.026 10.138 4.549 19.998 14.687 22.025 1.565.313 3.134.416 4.658.337-5.618-4.186-8.675-11.368-7.211-18.694z" fill="#f8d3aa"/><path d="m332.413 395.282c-3.944 6.628-11.748 10.392-19.742 8.794-10.138-2.026-16.713-11.887-14.687-22.025l6.203-31.037.1-.057 10.728-62.712 53.653 13.822z" fill="#ffe6c6"/><path d="m310.997 382.389 6.203-31.037.1-.057 10.234-59.825-12.519-3.225-10.728 62.712-.1.057-6.203 31.037c-2.026 10.138 4.549 19.999 14.687 22.025 3.364.672 6.708.391 9.732-.65-8.214-3.287-13.202-12.049-11.406-21.037z" fill="#f8d3aa"/><g><path d="m341.29 244.837 46.94-46.67 64.1 54.01c27.97 23.57 42.51 59.44 38.84 95.83l-7.99 79.14 10.148 17.748c1.697 2.967.667 6.748-2.3 8.444l-83.826 47.936c-2.967 1.697-6.747.667-8.444-2.3l-10.078-17.619-6.24-5.4c-33.01-28.54-52.86-69.39-54.9-112.99l-2.61-55.92c-.11-2.37-.78-4.69-1.96-6.75l-25.63-44.82c-1.95-3.4-2.87-7.1-2.87-10.76 0-7.54 3.93-14.86 10.94-18.87 10.41-5.96 23.68-2.35 29.64 8.07z" fill="#ffe6c6"/></g><g><path d="m236.947 360.98c0 19.095-15.48 34.575-34.576 34.575h-152.348c-19.096 0-34.576-15.48-34.576-34.575v-318.905c0-19.095 15.48-34.575 34.576-34.575h152.349c19.096 0 34.576 15.48 34.576 34.575v318.905z" fill="#d6d1d6"/><path d="m91.244 369.267c-19.096 0-34.576-14.834-34.576-33.132v-305.594c0-8.957 3.715-17.078 9.742-23.041h-16.387c-19.096 0-34.576 15.48-34.576 34.575v318.905c0 19.095 15.48 34.575 34.576 34.575h152.349c16.238 0 29.855-11.197 33.569-26.289h-144.697z" fill="#c7c0c7"/><path d="m206.947 68.761c0-2.527-2.048-4.575-4.575-4.575h-152.349c-2.527 0-4.576 2.049-4.576 4.576v107.861c0 2.527 2.049 4.576 4.576 4.576h150.415c3.595 0 6.509-2.914 6.509-6.509z" fill="#cfeffc"/><path d="m81.624 159.939c-8.87 0-16.06-7.19-16.06-16.06v-79.693h-15.541c-2.527 0-4.576 2.049-4.576 4.576v107.861c0 2.527 2.049 4.576 4.576 4.576h150.415c3.595 0 6.509-2.914 6.509-6.509v-14.75h-125.323z" fill="#a9e4f9"/><g fill="#f8f7f8"><path d="m135.866 249.736h-19.339c-3.5 0-6.337-2.837-6.337-6.337v-15.824c0-3.5 2.837-6.337 6.337-6.337h19.339c3.5 0 6.337 2.837 6.337 6.337v15.824c0 3.5-2.837 6.337-6.337 6.337z"/><path d="m71.123 249.736h-19.339c-3.5 0-6.337-2.837-6.337-6.337v-15.824c0-3.5 2.837-6.337 6.337-6.337h19.339c3.5 0 6.337 2.837 6.337 6.337v15.824c-.001 3.5-2.838 6.337-6.337 6.337z"/><path d="m135.866 306.692h-19.339c-3.5 0-6.337-2.837-6.337-6.337v-15.824c0-3.5 2.837-6.337 6.337-6.337h19.339c3.5 0 6.337 2.837 6.337 6.337v15.824c0 3.5-2.837 6.337-6.337 6.337z"/><path d="m71.123 306.692h-19.339c-3.5 0-6.337-2.837-6.337-6.337v-15.824c0-3.5 2.837-6.337 6.337-6.337h19.339c3.5 0 6.337 2.837 6.337 6.337v15.824c-.001 3.5-2.838 6.337-6.337 6.337z"/></g><path d="m181.272 306.692h19.339c3.5 0 6.337-2.837 6.337-6.337v-15.824c0-3.5-2.837-6.337-6.337-6.337h-19.339c-3.5 0-6.337 2.837-6.337 6.337v15.824c0 3.5 2.837 6.337 6.337 6.337z" fill="#d8efa7"/><path d="m135.866 363.648h-19.339c-3.5 0-6.337-2.837-6.337-6.337v-15.824c0-3.5 2.837-6.337 6.337-6.337h19.339c3.5 0 6.337 2.837 6.337 6.337v15.824c0 3.5-2.837 6.337-6.337 6.337z" fill="#f8f7f8"/><path d="m71.123 363.648h-19.339c-3.5 0-6.337-2.837-6.337-6.337v-15.824c0-3.5 2.837-6.337 6.337-6.337h19.339c3.5 0 6.337 2.837 6.337 6.337v15.824c-.001 3.5-2.838 6.337-6.337 6.337z" fill="#f8f7f8"/><path d="m181.272 363.648h19.339c3.5 0 6.337-2.837 6.337-6.337v-15.824c0-3.5-2.837-6.337-6.337-6.337h-19.339c-3.5 0-6.337 2.837-6.337 6.337v15.824c0 3.5 2.837 6.337 6.337 6.337z" fill="#fbe88c"/><path d="m378.203 328.08c11.842-5.779 16.332-20.366 9.79-31.804l-33.679-58.882-2.007-3.512-10.705 10.644 26.589 88.44z" fill="#f8d3aa"/><path d="m412.587 289.018c11.488-6.57 15.475-21.209 8.905-32.698l-99.733-174.382c-6.57-11.488-21.209-15.475-32.698-8.905l-119.685 68.45c-11.488 6.57-15.475 21.209-8.905 32.698l99.733 174.383c6.57 11.488 21.209 15.475 32.698 8.905z" fill="#f8f7f8"/><path d="m422.32 257.919-34.177 19.546c-4.54 2.597-10.326 1.021-12.922-3.519l-27.15-47.478c-6.525-11.408-18.746-18.496-31.894-18.496-6.371 0-12.671 1.679-18.215 4.853-11.406 6.525-18.492 18.745-18.492 31.89 0 6.38 1.68 12.682 4.849 18.207l25.627 44.823.506 10.84c.092 1.981-.932 3.846-2.654 4.831-11.488 6.57-25.68 3.365-31.699-7.159l-91.363-159.748c-4.729-8.269-3.003-18.594 3.526-25.827l-18.886 10.801c-11.488 6.57-15.475 21.209-8.905 32.697l99.733 174.383c6.57 11.488 21.209 15.475 32.698 8.905l119.685-68.45c10.962-6.269 15.086-19.884 9.733-31.099z" fill="#efedee"/><path d="m341.29 244.837 46.419 79.257-60.101 40.331-2.678-57.379c-.11-2.37-.78-4.69-1.96-6.75l-25.63-44.82c-1.95-3.4-2.87-7.1-2.87-10.76 0-7.54 3.93-14.86 10.94-18.87 10.41-5.96 23.68-2.35 29.64 8.07z" fill="#ffe6c6"/></g></g><g><path d="m423.65 490.102-7.897-13.806c-1.443-2.523-3.303-4.784-5.502-6.686l-2.919-2.526c-33.01-28.54-52.86-69.39-54.9-112.99l-2.61-55.92c-.11-2.37-.78-4.69-1.96-6.75l-25.63-44.82c-1.95-3.4-2.87-7.1-2.87-10.76 0-4.176 1.207-8.31 3.474-11.826-5.607-1.803-11.913-1.327-17.427 1.829-7.01 4.01-10.94 11.33-10.94 18.87 0 3.66.92 7.36 2.87 10.76l25.63 44.82c1.18 2.06 1.85 4.38 1.96 6.75l2.61 55.92c2.04 43.6 21.89 84.45 54.9 112.99l6.24 5.4 10.078 17.619c1.697 2.967 5.477 3.996 8.444 2.3l17.383-9.941c-.352-.365-.671-.773-.934-1.233z" fill="#f8d3aa"/></g><g><path d="m149.703 227.575c0-7.629-6.207-13.836-13.837-13.836h-19.339c-7.63 0-13.837 6.207-13.837 13.836v15.824c0 7.63 6.207 13.837 13.837 13.837h19.339c7.63 0 13.837-6.207 13.837-13.837zm-15 14.661h-17.013v-13.498h17.013z"/><path d="m84.959 227.575c0-7.629-6.207-13.836-13.837-13.836h-19.338c-7.63 0-13.837 6.207-13.837 13.836v15.824c0 7.63 6.207 13.837 13.837 13.837h19.338c7.63 0 13.837-6.207 13.837-13.837zm-15 14.661h-17.012v-13.498h17.012z"/><path d="m149.703 284.531c0-7.63-6.207-13.837-13.837-13.837h-19.339c-7.63 0-13.837 6.207-13.837 13.837v15.824c0 7.629 6.207 13.836 13.837 13.836h19.339c7.63 0 13.837-6.207 13.837-13.836zm-15 14.661h-17.013v-13.498h17.013z"/><path d="m84.959 284.531c0-7.63-6.207-13.837-13.837-13.837h-19.338c-7.63 0-13.837 6.207-13.837 13.837v15.824c0 7.629 6.207 13.836 13.837 13.836h19.338c7.63 0 13.837-6.207 13.837-13.836zm-15 14.661h-17.012v-13.498h17.012z"/><path d="m135.867 327.651h-19.339c-7.63 0-13.837 6.207-13.837 13.837v15.824c0 7.63 6.207 13.837 13.837 13.837h19.339c7.63 0 13.837-6.207 13.837-13.837v-15.824c-.001-7.63-6.208-13.837-13.837-13.837zm-1.164 28.497h-17.013v-13.498h17.013z"/><path d="m71.122 327.651h-19.338c-7.63 0-13.837 6.207-13.837 13.837v15.824c0 7.63 6.207 13.837 13.837 13.837h19.338c7.63 0 13.837-6.207 13.837-13.837v-15.824c0-7.63-6.207-13.837-13.837-13.837zm-1.163 28.497h-17.012v-13.498h17.012z"/><path d="m181.272 371.148h19.338c7.63 0 13.837-6.207 13.837-13.837v-15.824c0-7.63-6.207-13.837-13.837-13.837h-19.338c-7.63 0-13.837 6.207-13.837 13.837v15.824c0 7.63 6.207 13.837 13.837 13.837zm1.163-28.497h17.012v13.498h-17.012z"/><path d="m502.912 446.539-12.028-21.031 7.743-76.748c3.923-38.884-11.577-77.134-41.463-102.318l-63.085-53.158-65.81-115.07c-4.172-7.295-10.936-12.529-19.044-14.737-8.109-2.207-16.593-1.127-23.887 3.046l-40.891 23.386v-47.833c0-23.201-18.875-42.076-42.075-42.076h-152.349c-23.201 0-42.076 18.875-42.076 42.076v318.904c0 21.75 16.588 39.698 37.777 41.858v86.49c0 3.487 1.759 6.683 4.706 8.548 2.948 1.866 6.59 2.088 9.741.596l16.425-7.776 21.205 9.189c1.28.554 2.649.831 4.019.831 1.422 0 2.844-.298 4.166-.895l20.266-9.153 21.098 9.194c2.68 1.168 5.733 1.122 8.375-.13l19.019-9.01 17.668 7.929c3.144 1.41 6.747 1.135 9.64-.738 2.892-1.873 4.619-5.047 4.619-8.493v-86.582c21.189-2.16 37.777-20.108 37.777-41.858v-24.862l9.247 16.168c1.001 1.75 2.155 3.379 3.437 4.878l-3.214 16.078c-1.373 6.868.012 13.858 3.897 19.685s9.807 9.792 16.674 11.164c1.73.346 3.468.517 5.193.517 5.123 0 10.133-1.507 14.492-4.413.076-.051.148-.105.223-.156 3.717 5.695 9.624 9.956 16.804 11.391 1.705.341 3.416.506 5.111.506 4.349 0 8.589-1.098 12.357-3.112 9.466 27.95 26.261 53.264 48.865 72.807l5.272 4.559 12.515 21.882c1.385 2.421 3.915 3.778 6.517 3.778 1.263 0 2.542-.319 3.717-.991 3.595-2.056 4.843-6.638 2.787-10.234l-13.15-22.994c-.421-.736-.963-1.395-1.605-1.95l-6.241-5.396c-31.313-27.074-50.379-66.316-52.309-107.666l-2.611-55.917c-.165-3.544-1.183-7.046-2.946-10.129l-25.631-44.816c-1.886-3.297-2.375-7.131-1.376-10.796s3.364-6.722 6.661-8.607c3.298-1.886 7.13-2.377 10.797-1.376 3.665.998 6.722 3.363 8.607 6.66l14.322 25.042c2.057 3.596 6.639 4.843 10.233 2.788 3.596-2.057 4.844-6.639 2.788-10.234l-14.321-25.042c-3.875-6.775-10.156-11.636-17.687-13.687-7.531-2.05-15.41-1.046-22.185 2.829-13.986 7.999-18.857 25.886-10.858 39.872l25.631 44.815c.588 1.029.928 2.198.983 3.381l1.246 26.679-29.51 16.877c-3.817 2.183-8.255 2.75-12.498 1.593-4.243-1.155-7.782-3.894-9.965-7.711l-58.994-103.15c-2.057-3.596-6.64-4.845-10.234-2.787-3.595 2.056-4.843 6.638-2.787 10.234l13.714 23.979c-2.223-1.525-4.91-2.421-7.804-2.421h-19.338c-7.63 0-13.837 6.207-13.837 13.837v15.824c0 7.629 6.207 13.836 13.837 13.836h19.338c7.63 0 13.837-6.207 13.837-13.836v-15.824c0-.321-.027-.636-.048-.952l15.048 26.312v51.089c0 14.93-12.146 27.076-27.075 27.076h-152.351c-14.93 0-27.076-12.146-27.076-27.076v-318.905c0-14.93 12.146-27.076 27.076-27.076h152.349c14.929 0 27.075 12.146 27.075 27.076v56.412l-15 8.579v-38.306c0-6.658-5.417-12.075-12.075-12.075h-152.349c-6.659 0-12.076 5.417-12.076 12.076v32.008c0 4.142 3.358 7.5 7.5 7.5s7.5-3.358 7.5-7.5v-29.084h146.5v43.959l-33.794 19.328c-13.688 7.828-19.265 24.453-13.699 38.726h-99.007v-40.967c0-4.142-3.358-7.5-7.5-7.5s-7.5 3.358-7.5 7.5v43.891c0 6.659 5.417 12.076 12.076 12.076h110.112l18.698 32.693c2.057 3.595 6.638 4.843 10.234 2.787s4.843-6.638 2.787-10.234l-24.871-43.486c-4.507-7.88-1.762-17.958 6.118-22.464l119.685-68.45c3.817-2.183 8.255-2.75 12.498-1.593 4.243 1.155 7.782 3.894 9.965 7.711l99.732 174.383c2.183 3.817 2.749 8.256 1.594 12.499-1.156 4.243-3.894 7.781-7.711 9.964l-28.171 16.111-8.946-15.642c-2.057-3.596-6.64-4.843-10.234-2.787-3.595 2.056-4.843 6.638-2.787 10.234l20.233 35.377c1.385 2.421 3.915 3.778 6.517 3.778 1.263 0 2.542-.319 3.717-.991 3.595-2.056 4.843-6.638 2.787-10.234l-3.84-6.714 28.171-16.111c7.295-4.172 12.529-10.936 14.737-19.044s1.126-16.592-3.046-23.887l-12.268-21.45 31.764 26.766c26.096 21.99 39.631 55.389 36.206 89.341l-7.984 79.139c-.157 1.555.176 3.12.952 4.477l13.221 23.117c1.385 2.421 3.915 3.778 6.517 3.778 1.263 0 2.542-.319 3.717-.991 3.595-2.059 4.842-6.641 2.785-10.237zm-182.859-83.219c.479 10.25 1.924 20.38 4.257 30.268-2.612 2.646-6.426 3.881-10.169 3.134-6.066-1.212-10.015-7.134-8.803-13.2l5.535-27.691 8.6-4.919zm-38.997 4.824c4.32 0 8.592-.913 12.595-2.68l-3.022 15.117c-.587 2.938-2.284 5.472-4.777 7.135-2.494 1.664-5.485 2.255-8.423 1.667-2.938-.587-5.472-2.284-7.135-4.777s-2.255-5.484-1.667-8.423l1.966-9.835c.705.246 1.418.477 2.146.676 2.749.749 5.542 1.12 8.317 1.12zm-81.609-68.952h-17.012v-13.498h17.012zm-7.777 182.685-12.842-5.763c-2.704-1.212-5.79-1.181-8.472.088l-19.047 9.023-21.051-9.174c-2.614-1.14-5.605-1.12-8.207.055l-20.271 9.156-21.249-9.208c-1.285-.557-2.654-.835-4.024-.835-1.48 0-2.96.325-4.33.973l-11.454 5.423v-78.559h130.947z"/><path d="m295.807 135.622c1.088-3.997-1.269-8.119-5.266-9.207-14.768-4.021-30.219-2.052-43.506 5.547-13.286 7.599-22.818 19.917-26.84 34.686-1.088 3.997 1.269 8.119 5.266 9.207.66.18 1.323.266 1.975.266 3.299 0 6.323-2.194 7.232-5.531 2.969-10.903 10.006-19.997 19.814-25.606 9.809-5.61 21.214-7.064 32.118-4.095 3.995 1.087 8.119-1.271 9.207-5.267z"/><path d="m278.715 169.842c3.994 1.086 8.118-1.269 9.208-5.265 1.089-3.996-1.269-8.119-5.265-9.208-7.04-1.917-14.402-.983-20.727 2.633-6.324 3.616-10.862 9.486-12.78 16.529-1.088 3.997 1.269 8.119 5.266 9.207.66.18 1.323.266 1.975.266 3.299 0 6.323-2.194 7.232-5.531.865-3.177 2.909-5.822 5.754-7.45 2.845-1.626 6.161-2.046 9.337-1.181z"/><path d="m275.786 197.338c1.385 2.421 3.915 3.778 6.517 3.778 1.263 0 2.542-.319 3.717-.991 3.595-2.056 4.843-6.638 2.787-10.234l-2.491-4.356c-2.057-3.596-6.639-4.844-10.234-2.787-3.595 2.056-4.843 6.638-2.787 10.234z"/></g></g></svg>