<svg id="Capa_1" enable-background="new 0 0 512 512" height="512" viewBox="0 0 512 512" width="512" xmlns="http://www.w3.org/2000/svg"><g><g><g><path d="m44.186 141.526v281.163c0 22.16 17.964 40.123 40.123 40.123h314.887c22.159 0 40.123-17.964 40.123-40.123v-372.918c0-22.159-17.964-40.123-40.123-40.123h-223.131c-13.301 0-26.057 5.284-35.462 14.689l-81.728 81.728c-9.405 9.404-14.689 22.16-14.689 35.461z" fill="#f4fbff"/><path d="m44.185 141.533v8.562c0-16.203 13.139-29.342 29.342-29.342h41.642c22.157 0 40.119-17.963 40.119-40.119v-41.643c0-16.203 13.139-29.342 29.342-29.342h-8.562c-13.303 0-26.059 5.288-35.469 14.689l-81.725 81.725c-9.4 9.411-14.689 22.167-14.689 35.47z" fill="#e4f6ff"/></g><g><path d="m480.026 311.047c13.515 0 24.471-10.956 24.471-24.471v-84.536c0-13.515-10.956-24.471-24.471-24.471-13.515 0-24.471 10.956-24.471 24.471v84.536c0 13.515 10.956 24.471 24.471 24.471z" fill="#80b4fb"/><path d="m468.982 443.031v14.108c0 16.382-13.28 29.662-29.662 29.662-16.382 0-29.662-13.28-29.662-29.662v-14.108l34.111-31.889z" fill="#ffe07d"/><path d="m441.647 478.123c2.654 2.654 5.82 4.805 9.321 6.311-3.579 1.527-7.515 2.375-11.651 2.375-8.184 0-15.61-3.323-20.972-8.686-5.363-5.374-8.686-12.789-8.686-20.984v-14.104l34.107-31.888 9.912 12.532-20.716 19.356v14.104c-.001 8.195 3.322 15.609 8.685 20.984z" fill="#ffd064"/><path d="m468.977 240.464v202.567h-59.316v-202.197" fill="#e27f83"/><path d="m432.968 240.464v202.567h-23.307v-202.197" fill="#c8646d"/><path d="m465.66 216.452-7.028-82.328c-.856-10.028-9.246-17.733-19.311-17.733-10.065 0-18.455 7.704-19.311 17.733l-7.028 82.328" fill="#9dc6fb"/><path d="m439.321 116.385c-.948 0-1.818 1.929-2.464 5.107-.647 3.178-1.082 7.615-1.159 12.633l-1.316 82.318h-21.396l7.024-82.318c.424-5.017 2.743-9.455 6.199-12.633 3.467-3.178 8.072-5.107 13.112-5.107z" fill="#80b4fb"/><path d="m465.66 216.452h-52.679c-8.272 0-14.979 6.706-14.979 14.979 0 8.272 6.706 14.979 14.979 14.979h52.679c8.272 0 14.979-6.706 14.979-14.979-.001-8.273-6.707-14.979-14.979-14.979z" fill="#9dc6fb"/><path d="m428.586 242.023c2.709 2.709 6.456 4.382 10.592 4.382h-26.202c-4.137 0-7.883-1.672-10.592-4.382-2.709-2.709-4.382-6.456-4.382-10.592 0-8.273 6.701-14.985 14.974-14.985h26.202c-8.273 0-14.974 6.712-14.974 14.985 0 4.136 1.673 7.883 4.382 10.592z" fill="#80b4fb"/></g><g><circle cx="104.328" cy="278.806" fill="#f1ce64" r="96.828"/><circle cx="104.328" cy="278.806" fill="#f5de7d" r="71.934"/></g></g><g><path d="m272.423 62.914h115.427c4.143 0 7.5-3.358 7.5-7.5s-3.357-7.5-7.5-7.5h-115.427c-4.143 0-7.5 3.358-7.5 7.5s3.357 7.5 7.5 7.5z"/><path d="m272.423 99.017h115.427c4.143 0 7.5-3.358 7.5-7.5s-3.357-7.5-7.5-7.5h-115.427c-4.143 0-7.5 3.358-7.5 7.5s3.357 7.5 7.5 7.5z"/><path d="m272.423 135.12h115.427c4.143 0 7.5-3.358 7.5-7.5s-3.357-7.5-7.5-7.5h-115.427c-4.143 0-7.5 3.358-7.5 7.5s3.357 7.5 7.5 7.5z"/><path d="m272.423 171.223h81.971c4.143 0 7.5-3.358 7.5-7.5s-3.357-7.5-7.5-7.5h-81.971c-4.143 0-7.5 3.358-7.5 7.5s3.357 7.5 7.5 7.5z"/><path d="m480.026 170.069c-3.68 0-7.27.62-10.646 1.809l-3.277-38.391c-.975-11.424-8.8-20.559-19.278-23.55v-60.172c0-26.256-21.366-47.618-47.628-47.618h-223.131c-15.177 0-30.036 6.154-40.767 16.884l-81.729 81.73c-10.73 10.729-16.885 25.588-16.885 40.766v57.921c-22.434 19.151-36.685 47.622-36.685 79.362 0 31.737 14.251 60.205 36.687 79.354v64.53c0 26.256 21.366 47.618 47.628 47.618h314.883c1.762 0 3.515-.122 5.256-.314 4.4 11.894 14.72 20.941 27.367 23.543v8.812c0 4.142 3.357 7.5 7.5 7.5s7.5-3.358 7.5-7.5v-8.812c16.908-3.479 29.662-18.478 29.662-36.401v-45.255c0-4.142-3.357-7.5-7.5-7.5s-7.5 3.358-7.5 7.5v.847c0 .013-.002.025-.002.039v22.76h-14.661v-133.396c0-4.142-3.357-7.5-7.5-7.5s-7.5 3.358-7.5 7.5v133.395h-14.66v-181.62h44.32v128.88c0 4.142 3.357 7.5 7.5 7.5s7.5-3.358 7.5-7.5v-64.436c1.169.128 2.351.198 3.546.198 17.63 0 31.974-14.343 31.974-31.974v-84.537c0-17.629-14.344-31.972-31.974-31.972zm-14.367 68.84h-52.679c-4.124 0-7.479-3.355-7.479-7.479s3.354-7.479 7.479-7.479h52.679c4.124 0 7.479 3.355 7.479 7.479.001 4.124-3.355 7.479-7.479 7.479zm-14.501-104.147 6.333 74.189h-36.344l6.334-74.19c.529-6.197 5.618-10.87 11.838-10.87s11.31 4.674 11.839 10.871zm-305.252-105.124c1.345-1.345 2.783-2.583 4.29-3.728-1.551 4.068-2.408 8.476-2.408 13.082v41.642c0 17.986-14.633 32.619-32.619 32.619h-41.642c-4.605 0-9.012.857-13.08 2.407 1.145-1.507 2.385-2.946 3.73-4.292zm-61.592 425.673c-17.991 0-32.628-14.632-32.628-32.618v-53.851c15.463 9.075 33.455 14.287 52.644 14.287 57.527 0 104.33-46.798 104.33-104.32 0-29.965-12.908-58.515-35.414-78.33-3.11-2.737-7.848-2.436-10.585.673s-2.436 7.848.673 10.585c19.272 16.967 30.326 41.414 30.326 67.071 0 49.251-40.073 89.32-89.33 89.32s-89.33-40.067-89.33-89.318c0-49.257 40.073-89.33 89.33-89.33 12.423 0 24.435 2.5 35.703 7.431 3.794 1.662 8.218-.069 9.878-3.864s-.069-8.217-3.864-9.878c-13.176-5.766-27.212-8.689-41.717-8.689-19.189 0-37.18 5.213-52.644 14.289v-38.712c.021-12.026 9.81-21.803 21.841-21.803h41.642c26.257 0 47.619-21.362 47.619-47.619v-41.644c0-12.043 9.798-21.842 21.842-21.842.013 0 .026-.002.039-.002h214.529c17.991 0 32.628 14.632 32.628 32.618v60.168c-10.483 2.989-18.313 12.125-19.288 23.552l-6.539 76.582c-8.986 2.944-15.497 11.406-15.497 21.363 0 8.474 4.715 15.866 11.658 19.695v160.719c0 .013-.002.025-.002.039v43.277c-.982.088-1.969.149-2.961.149h-314.883zm377.168-4.781v6.609c0 12.22-9.941 22.162-22.162 22.162s-22.162-9.942-22.162-22.162v-6.609zm35.518-163.951c0 9.359-7.614 16.974-16.974 16.974-1.21 0-2.393-.13-3.546-.375v-52.051c6.943-3.83 11.658-11.221 11.658-19.695 0-9.958-6.511-18.419-15.497-21.363l-1.898-22.238c2.733-1.796 5.936-2.761 9.283-2.761 9.359 0 16.974 7.614 16.974 16.974z"/><path d="m104.327 199.373c-43.8 0-79.434 35.634-79.434 79.433 0 43.8 35.634 79.434 79.434 79.434s79.434-35.634 79.434-79.434c0-43.799-35.634-79.433-79.434-79.433zm0 143.867c-35.529 0-64.434-28.905-64.434-64.434 0-35.528 28.904-64.433 64.434-64.433s64.434 28.905 64.434 64.433c0 35.529-28.905 64.434-64.434 64.434z"/><path d="m114.696 271.298c-7.116-2.516-14.99-5.556-19.429-9.037-1.502-1.178-2.135-3.732-1.612-6.506.524-2.781 2.396-6.148 6.08-7.258 8.485-2.558 14.095 1.829 14.705 2.337 3.186 2.649 7.913 2.214 10.562-.971 2.648-3.185 2.214-7.914-.971-10.562-1.239-1.029-5.786-4.468-12.686-5.936v-3.453c0-4.142-3.357-7.5-7.5-7.5s-7.5 3.358-7.5 7.5v3.961c-.312.085-.622.166-.938.261-8.464 2.55-14.784 9.77-16.494 18.843-1.572 8.341 1.146 16.421 7.096 21.087 4.953 3.885 11.816 7.181 23.687 11.376 8.172 2.889 7.993 9.511 7.537 12.225-.919 5.465-5.517 11.372-13.438 11.424-7.652.055-10.05-.329-15.948-4.188-3.467-2.268-8.114-1.296-10.382 2.17s-1.296 8.115 2.171 10.382c6.332 4.142 10.976 5.783 16.71 6.359v3.889c0 4.142 3.357 7.5 7.5 7.5s7.5-3.358 7.5-7.5v-4.611c11.595-3.118 19.025-13.095 20.68-22.939 2.158-12.83-4.806-24.426-17.33-28.853z"/><path d="m61.36 271.095c-4.143 0-7.5 3.358-7.5 7.5v.422c0 4.142 3.357 7.5 7.5 7.5s7.5-3.358 7.5-7.5v-.422c0-4.142-3.357-7.5-7.5-7.5z"/><path d="m139.795 278.595v.422c0 4.142 3.357 7.5 7.5 7.5s7.5-3.358 7.5-7.5v-.422c0-4.142-3.357-7.5-7.5-7.5s-7.5 3.358-7.5 7.5z"/><path d="m325.166 352.435c1.62 1.62 3.89 2.409 6.166 2.147 2.275-.263 4.305-1.552 5.512-3.498l41.367-66.721c2.183-3.521 1.099-8.144-2.422-10.327-3.519-2.181-8.145-1.1-10.326 2.422l-36.381 58.678-33.341-33.341c-1.661-1.66-4.001-2.448-6.331-2.126-2.327.322-4.369 1.715-5.517 3.765l-52.114 93.061-35.974-23.608c-1.767-1.158-3.935-1.52-5.982-.993-2.045.525-3.773 1.889-4.761 3.754l-24.02 45.37c-1.938 3.661-.542 8.2 3.119 10.138 1.118.592 2.319.873 3.502.873 2.689 0 5.289-1.45 6.635-3.992l20.165-38.088 35.812 23.502c1.74 1.141 3.875 1.509 5.896 1.015s3.746-1.806 4.763-3.621l51.205-91.436z"/><path d="m382.512 414.359h-85.402c-4.143 0-7.5 3.358-7.5 7.5s3.357 7.5 7.5 7.5h85.402c4.143 0 7.5-3.358 7.5-7.5s-3.358-7.5-7.5-7.5z"/><path d="m382.512 384.276h-52.042c-4.143 0-7.5 3.358-7.5 7.5s3.357 7.5 7.5 7.5h52.042c4.143 0 7.5-3.358 7.5-7.5s-3.358-7.5-7.5-7.5z"/></g></g></svg>